<?xml version="1.0" standalone="no"?><!DOCTYPE svg PUBLIC "-//W3C//DTD SVG 1.1//EN" "http://www.w3.org/Graphics/SVG/1.1/DTD/svg11.dtd"><svg t="1499923285365" class="icon" style="" viewBox="0 0 1537 1024" version="1.1" xmlns="http://www.w3.org/2000/svg" p-id="1447" xmlns:xlink="http://www.w3.org/1999/xlink" width="300.1953125" height="200"><defs><style type="text/css"></style></defs><path d="M990.276596 31.319149H926.276596c-17.702128 0-38.12766 10.893617-38.12766 28.595745s20.425532 35.404255 38.12766 35.404255h64.00133c38.12766 0 64 25.87234 64 64v736.680851c0 38.12766-25.87234 64-64 64H301.255319c-38.12766 0-80.340426-25.87234-80.340425-64V159.319149c0-38.12766 25.87234-64 64-64h80.340425c17.702128 0 24.510638-17.702128 24.510638-35.404255s-6.808511-28.595745-24.510638-28.595745h-80.340425c-89.87234 0-128 55.829787-128 129.361702v728.510638c0 78.980053 47.659574 134.808511 134.80851 134.808511h691.744681c87.148936 0 134.808511-46.296543 134.808511-134.808511V160.680851c0-73.531915-44.93617-129.361702-128-129.361702zM365.255319 320c0 17.702128 14.978723 32.680851 32.680851 32.680851H878.617021c17.703457 0 32.680851-14.978723 32.680851-32.680851s-14.978723-32.680851-32.680851-32.680851H397.93617c-17.702128 0-32.680851 14.978723-32.680851 32.680851z m512 144.340426H397.93617c-17.702128 0-32.680851 14.978723-32.680851 32.680851 0 17.703457 14.978723 32.680851 32.680851 32.680851H878.617021c17.703457 0 32.680851-14.978723 32.680851-32.680851-1.361702-19.06383-16.340426-32.680851-34.042553-32.680851z m0 192H397.93617c-17.702128 0-32.680851 14.978723-32.680851 32.679521 0 17.703457 14.978723 32.680851 32.680851 32.680851H878.617021c17.703457 0 32.680851-14.978723 32.680851-32.680851-1.361702-19.0625-16.340426-32.679521-34.042553-32.679521z m-349.957447-544.680852h223.319149c25.87234 0 47.659574-25.87234 47.659575-55.829787 0-29.957447-21.787234-55.829787-49.019947-55.829787H527.297872c-27.234043 0-49.021277 25.87234-49.021276 55.829787 0 29.957447 21.787234 55.829787 49.021276 55.829787z" fill="" p-id="1448"></path></svg>